<svg width="45" height="45" viewBox="0 0 65 65" fill="none" xmlns="http://www.w3.org/2000/svg">
<path d="M55.9863 0H5.71289C2.5628 0 0 2.5628 0 5.71289V55.9863C0 59.1364 2.5628 61.6992 5.71289 61.6992H43.291C43.7962 61.6992 44.2805 61.4985 44.6375 61.1414L61.1414 44.6375C61.4986 44.2804 61.6992 43.796 61.6992 43.291V5.71289C61.6992 2.5628 59.1364 0 55.9863 0Z" fill="white"/>
<path d="M30.8496 0H5.71289C2.5628 0 0 2.5628 0 5.71289V30.8496H30.8496V0Z" fill="#00A5B9"/>
<path d="M61.6992 30.8496V5.71289C61.6992 2.5628 59.1364 0 55.9863 0H30.8496V30.8496H61.6992Z" fill="#647E82"/>
<path d="M30.8496 30.8496V61.6992H43.291C43.7962 61.6992 44.2805 61.4985 44.6375 61.1414L61.1414 44.6375C61.4986 44.2804 61.6992 43.796 61.6992 43.291V30.8496H30.8496ZM59.7949 43.291H59.7962H59.7949Z" fill="#5C5C5C"/>
<path d="M0 30.8496V55.9863C0 59.1364 2.5628 61.6992 5.71289 61.6992H30.8496V30.8496H0Z" fill="#647E82"/>
<path d="M19.8682 13.5205H17.3291V10.9814C17.3291 9.92977 16.4765 9.07715 15.4248 9.07715C14.3731 9.07715 13.5205 9.92977 13.5205 10.9814V13.5205H10.9814C9.92977 13.5205 9.07715 14.3731 9.07715 15.4248C9.07715 16.4765 9.92977 17.3291 10.9814 17.3291H13.5205V19.8682C13.5205 20.9198 14.3731 21.7725 15.4248 21.7725C16.4765 21.7725 17.3291 20.9198 17.3291 19.8682V17.3291H19.8682C20.9198 17.3291 21.7725 16.4765 21.7725 15.4248C21.7725 14.3731 20.9198 13.5205 19.8682 13.5205Z" fill="white"/>
<path d="M50.7178 17.3291H41.8311C40.7794 17.3291 39.9268 16.4765 39.9268 15.4248C39.9268 14.3731 40.7794 13.5205 41.8311 13.5205H50.7178C51.7695 13.5205 52.6221 14.3731 52.6221 15.4248C52.6221 16.4765 51.7695 17.3291 50.7178 17.3291Z" fill="white"/>
<path d="M18.1176 46.2745L19.945 44.4471C20.6887 43.7034 20.6887 42.4977 19.945 41.7541C19.2014 41.0104 17.9956 41.0104 17.2519 41.7541L15.4246 43.5814L13.5972 41.7541C12.8536 41.0104 11.6478 41.0104 10.9041 41.7541C10.1605 42.4977 10.1605 43.7034 10.9041 44.4471L12.7315 46.2745L10.9041 48.1018C10.1605 48.8455 10.1605 50.0512 10.9041 50.7949C11.276 51.1667 11.7634 51.3527 12.2506 51.3527C12.7379 51.3527 13.2254 51.1669 13.5971 50.7949L15.4244 48.9675L17.2518 50.7949C17.6236 51.1667 18.111 51.3527 18.5983 51.3527C19.0855 51.3527 19.573 51.1669 19.9447 50.7949C20.6884 50.0512 20.6884 48.8455 19.9447 48.1018L18.1176 46.2745Z" fill="white"/>
<path d="M45.3223 65C34.4718 65 25.6445 56.1726 25.6445 45.3223C25.6445 34.472 34.4718 25.6445 45.3223 25.6445C56.1727 25.6445 65 34.472 65 45.3223C65 56.1726 56.1727 65 45.3223 65Z" fill="#FFCD29"/>
<path d="M40.0112 45.8872H38.7275V48.75H37.1162V40.9297H40.022C40.9458 40.9297 41.6584 41.1356 42.1597 41.5474C42.661 41.9591 42.9116 42.541 42.9116 43.293C42.9116 43.8265 42.7952 44.2723 42.5625 44.6304C42.3333 44.9849 41.9842 45.2677 41.5151 45.479L43.207 48.6748V48.75H41.4775L40.0112 45.8872ZM38.7275 44.582H40.0273C40.432 44.582 40.7453 44.48 40.9673 44.2759C41.1893 44.0682 41.3003 43.7835 41.3003 43.4219C41.3003 43.0531 41.1947 42.763 40.9834 42.5518C40.7757 42.3405 40.4552 42.2349 40.022 42.2349H38.7275V44.582ZM50.5654 45.0171C50.5654 45.7869 50.4294 46.4619 50.1572 47.042C49.8851 47.6221 49.4948 48.0697 48.9863 48.3848C48.4814 48.6999 47.9014 48.8574 47.2461 48.8574C46.598 48.8574 46.0197 48.7017 45.5112 48.3901C45.0028 48.0786 44.6089 47.6346 44.3296 47.0581C44.0503 46.478 43.9089 45.812 43.9053 45.0601V44.6733C43.9053 43.9035 44.0431 43.2267 44.3188 42.6431C44.5981 42.0558 44.9902 41.6064 45.4951 41.2949C46.0036 40.9798 46.5837 40.8223 47.2354 40.8223C47.887 40.8223 48.4653 40.9798 48.9702 41.2949C49.4787 41.6064 49.8708 42.0558 50.1465 42.6431C50.4258 43.2267 50.5654 43.9017 50.5654 44.668V45.0171ZM48.9326 44.6626C48.9326 43.8426 48.7858 43.2196 48.4922 42.7935C48.1986 42.3674 47.7796 42.1543 47.2354 42.1543C46.6947 42.1543 46.2775 42.3656 45.9839 42.7881C45.6903 43.207 45.5417 43.8229 45.5381 44.6357V45.0171C45.5381 45.8156 45.6849 46.4351 45.9785 46.8755C46.2721 47.3159 46.6947 47.5361 47.2461 47.5361C47.7868 47.5361 48.2021 47.3249 48.4922 46.9023C48.7822 46.4762 48.929 45.8568 48.9326 45.0439V44.6626ZM53.4497 48.75H51.8384V40.9297H53.4497V48.75Z" fill="#455A64"/>
</svg>
